<svg id="Layer_1" data-name="Layer 1" xmlns="http://www.w3.org/2000/svg" viewBox="0 0 1080 1080"><defs><style>.cls-1{fill:#2134c3;}</style></defs><title>NODGE</title><path class="cls-1" d="M646.61,956.6c-13,0-17.88,1.09-22.06-.16-151-44.86-151-44.89-151-203.42,0-67.58,0-135.16,0-208.56-81.11,12.09-151.35,42.48-224.37,61.87-31.58,8.39-62.81,18.23-93.86,28.44-28.59,9.4-38.05-2.16-37.57-29.76.76-44.42,1.22-88.9-.28-133.28-1-29.8,10.56-42.23,40.62-41.86,72.5.89,145,.51,217.53,0,60.32-.44,60.74-.85,61.17-62.85.49-70.15,1.27-140.33-.34-210.45-.77-33.54,12.26-45.81,45.18-44.29,39.68,1.82,79.61,2.12,119.25-.15,36.21-2.06,50.09,10.89,49,48-2.18,72.43-1.22,145-.46,217.46.51,48.43,1.36,49.21,51.41,49.71,72.5.73,145-.39,217.53.37,52.61.54,55,1.4,53.36,55.66-1.63,52.93,23.94,120.07-12.18,154.9C926.88,669.66,861.32,646,810.37,648c-37.37,1.5-75,2-112.24-.26-35.41-2.11-50.18,9.26-48.91,47,2.43,72.41.87,145,.57,217.45C649.74,925.94,647.88,939.65,646.61,956.6Z"/></svg>