<svg id="Layer_1" data-name="Layer 1" xmlns="http://www.w3.org/2000/svg" viewBox="0 0 1080 1080"><defs><style>.cls-1{fill:#2133c3;}.cls-2{fill:#2533b7;}.cls-3{fill:#2134c3;}</style></defs><title>NODGE</title><path class="cls-1" d="M709.07,520c0-4.55-1.24-6.9-6.21-6.58-4.74.28-9.57,0-14.31,0-11.83,0-11.83,0-12.61,12.33-.09,1.06-.37,2.12-2.39,2.12a41,41,0,0,1-3.77-3.18c-19.33-20.52-58.81-19-77.95,8.93-7.5,11-10.58,23.37-11.64,36.3-1.7,21.12,1.66,41.13,15.51,58.07,18.17,22.13,50.47,24.06,71.45,4.6,1.57-1.48,2.35-3.82,7-4.6-.41,9.75.83,18.77-.87,27.83-1.15,6.08-3.87,11.23-9.85,13.71a44.89,44.89,0,0,1-28.11,2c-2.86-.65-6.49-1.61-7.27-4.42-2.67-9.48-10.4-8.69-17.53-9.57-5.8-.69-11.6-1.66-17.39-2.44-7.87-1-9.3.37-8.56,8.1,1.33,14.82,12.7,28.25,29,32.44a121.15,121.15,0,0,0,61.1.46c17.21-4.37,27.88-15.65,31.7-33.08a69.31,69.31,0,0,0,1.89-13C709.85,606.68,708.61,563.3,709.07,520ZM663.7,609.12c-13.62,13.44-35.24,9.94-43.06-7.5-7.09-15.78-6.86-32.21-.19-48,4.19-9.9,12.47-15.42,23.28-15.83s19.19,4.37,24.8,13.57c4.93,8.15,6.12,17.16,5.71,26C674.74,589.61,672.49,600.47,663.7,609.12Z"/><path class="cls-1" d="M554,634.57q0-79.44-.05-158.79c0-2.21,0-4.41,0-6.62.09-3.64-1.61-5.43-5.24-5.43-5.89,0-11.78-.05-17.63-.05-13.48,0-12.19-.41-12.19,11.69-.05,13.2,0,26.45,0,39.66v10.35c-4.28.46-5.8-2.07-7.55-3.63-21.71-19.1-68.05-15.55-82.08,26.45a96.38,96.38,0,0,0-.37,60.69c9.48,30.28,40.08,48.82,70.12,36.21,8-3.36,14.18-9,20.75-15.78,3.09,5.71-1.33,12.24,3.23,15.41,4.09,2.86,10,.79,15.09,1,3.26.13,6.58-.14,9.89,0,4.09.19,6.26-1.38,6-5.7C553.83,638.25,554,636.41,554,634.57Zm-39.34-29.91c-5.16,10.35-13.25,16.79-25.08,16.56-12.19-.23-20.93-6.81-25-18.17a69.11,69.11,0,0,1-.92-45.28c4-12.28,14.58-20.06,26.09-20.1,12.37,0,22.45,7.68,26.77,20.66,2.35,7,2.67,14.35,2.58,21.71C519.23,588.56,518.49,596.88,514.63,604.66Z"/><path class="cls-1" d="M399.46,550.14c-13.39-31-45.36-45.23-80.88-37.09-30.14,6.86-50.25,33.87-49.7,66.81.33,15.73,3.13,30.78,12.89,43.62,21,27.56,65.61,33.95,94.5,14.08C403.6,618.74,413.08,581.61,399.46,550.14Zm-34.78,51.8c-5.25,12.29-15.14,18.55-28.76,18.13-13-.41-22.63-7.5-27.6-19.92a52.31,52.31,0,0,1-3.45-21.3,44.71,44.71,0,0,1,3.95-20.52c5.39-11.74,14.45-18.32,27.47-18.64s22.78,5.71,28.11,17.44C371.12,571.85,371,587.17,364.68,601.94Z"/><path class="cls-1" d="M849.31,590.35c5.11,0,7.54-1.33,7-6.81-1.06-10.54-1.33-21.17-4.55-31.47C844,527.36,824.6,512.41,797.68,511c-26.68-1.38-48.21,11.5-58.15,35.2-8.42,20.06-8.74,40.81-2.76,61.42,5.15,17.9,16.24,31.34,34.41,37.41a78.59,78.59,0,0,0,40.17,2.85c21.07-4.09,37.27-18.54,41.18-37.45a11.53,11.53,0,0,0-2.85-1.38c-7.59-1.33-15.33-2-22.78-3.91-5.7-1.52-8-.14-10.63,5.29-5.66,11.82-16.51,15.46-28.71,10.54-12.88-5.25-17.57-15.79-18.31-30.65h11.64C803.71,590.3,826.49,590.17,849.31,590.35Zm-79.14-28.11c.37-10,7.78-19.88,17.48-23.24a24.17,24.17,0,0,1,27.43,8.74c4.18,5.71,6.62,12.1,5.52,20.48H774.4C770.08,568.22,770.08,565.37,770.17,562.24Z"/><path class="cls-2" d="M242.34,639.4c0,4.74-1.75,6.58-6.44,6.44-7-.23-14,0-20.94-.09-8-.14-8.1-.23-8.14-9-.1-18.72,0-37.45,0-56.17-.05-7,0-14-.55-20.94-1.11-12.93-6.35-19.46-16.66-21.53s-22.82,3.72-28.16,13.16c-3,5.29-3.72,11.08-4.09,17-1.38,21.26-.32,42.56-.64,63.87,0,2.94-.1,5.89,0,8.83.13,5-2.86,5.15-6.54,4.28-7.36.18-14.68.09-22,.6-5.43.32-6.95-1.89-6.9-7,.23-17.62,0-35.25.09-52.87.14-22,.37-44,.51-66.07-.83-3.68-.79-6.58,4.32-6.49,7.32.14,14.68.28,22,0,5.06-.19,6.35,2.3,6.07,6.72-.18,2.89,0,5.84,0,9.34,4.64-.6,6.3-4.28,9-6.35,17.62-13.58,36.67-15.83,57-7.27,16.61,7,21.39,21.81,21.85,37.72C242.84,582.11,242.2,610.73,242.34,639.4Z"/><path class="cls-3" d="M935.28,508.53a18.52,18.52,0,0,1-3.47,0c-23.72-7.05-23.72-7.05-23.72-32,0-10.62,0-21.23,0-32.76-12.75,1.9-23.78,6.67-35.25,9.72-5,1.32-9.87,2.86-14.75,4.46-4.49,1.48-6-.34-5.9-4.67.12-7,.19-14,0-20.94-.16-4.68,1.65-6.63,6.38-6.58,11.39.14,22.78.08,34.17,0,9.48-.07,9.54-.13,9.61-9.87.08-11,.2-22.05,0-33.06-.12-5.27,1.92-7.2,7.1-7a185.73,185.73,0,0,0,18.73,0c5.69-.33,7.87,1.71,7.69,7.54-.34,11.38-.19,22.77-.07,34.16.08,7.61.21,7.73,8.08,7.81,11.39.12,22.78-.06,34.17.06,8.27.08,8.64.22,8.38,8.74-.25,8.32,3.76,18.87-1.91,24.34-5.12,4.94-15.42,1.21-23.42,1.54-5.87.23-11.78.31-17.64,0-5.56-.34-7.88,1.45-7.68,7.38.38,11.37.14,22.77.09,34.16C935.77,503.72,935.48,505.87,935.28,508.53Z"/></svg>